<svg width="60" height="60" viewBox="0 0 60 60" fill="none" xmlns="http://www.w3.org/2000/svg">
<path d="M38.7352 35H36.7611L36.0615 34.325C39.06 30.825 40.6093 26.05 39.7597 20.975C38.5853 14.025 32.788 8.47504 25.7914 7.62504C15.2214 6.32504 6.32566 15.225 7.62504 25.8C8.47463 32.8 14.022 38.6 20.9687 39.775C26.0413 40.625 30.814 39.075 34.3123 36.075L34.987 36.775V38.75L45.6069 49.375C46.6314 50.4 48.3056 50.4 49.3301 49.375C50.3547 48.35 50.3547 46.675 49.3301 45.65L38.7352 35ZM23.7424 35C17.5203 35 12.4977 29.975 12.4977 23.75C12.4977 17.525 17.5203 12.5 23.7424 12.5C29.9644 12.5 34.987 17.525 34.987 23.75C34.987 29.975 29.9644 35 23.7424 35Z" fill="white"/>
</svg>
